<svg xmlns="http://www.w3.org/2000/svg" xmlns:xlink="http://www.w3.org/1999/xlink" width="26" height="26" viewBox="0 0 26 26">
  <defs>
    <clipPath id="clip-chat">
      <rect width="26" height="26"/>
    </clipPath>
  </defs>
  <g id="chat" clip-path="url(#clip-chat)">
    <path id="whatsapp" d="M19.015,3.208A10.939,10.939,0,0,0,1.8,16.4L.25,22.071l5.8-1.521a10.925,10.925,0,0,0,5.226,1.331h0A10.942,10.942,0,0,0,19.015,3.208ZM11.279,20.035h0a9.079,9.079,0,0,1-4.627-1.267l-.332-.2-3.441.9.918-3.354-.216-.344a9.09,9.09,0,1,1,7.7,4.26Zm4.986-6.808c-.273-.137-1.617-.8-1.867-.889s-.433-.137-.615.137-.706.889-.865,1.071-.319.205-.592.068a7.464,7.464,0,0,1-2.2-1.356,8.243,8.243,0,0,1-1.52-1.893c-.159-.274,0-.407.12-.558a7.73,7.73,0,0,0,.683-.935.5.5,0,0,0-.023-.479c-.068-.137-.615-1.482-.842-2.029S8.1,5.9,7.93,5.9s-.341-.01-.524-.01a1,1,0,0,0-.729.342,3.065,3.065,0,0,0-.956,2.28,5.316,5.316,0,0,0,1.116,2.827,12.181,12.181,0,0,0,4.668,4.126,15.642,15.642,0,0,0,1.558.576,3.746,3.746,0,0,0,1.721.108,2.815,2.815,0,0,0,1.845-1.3,2.283,2.283,0,0,0,.159-1.3c-.068-.114-.25-.182-.524-.319Zm0,0" transform="translate(1.767 1.964)" fill="#0dc143" fill-rule="evenodd"/>
  </g>
</svg>
