<svg xmlns="http://www.w3.org/2000/svg" xmlns:xlink="http://www.w3.org/1999/xlink" width="898" height="633" viewBox="0 0 898 633"><defs><clipPath id="b"><rect width="898" height="633"/></clipPath></defs><g id="a" clip-path="url(#b)"><g transform="translate(-263 -424.5)"><path d="M-3935.7,2106.068s183.015,84.628,440.5,125.021c132.017,20.71,214.557,4.45,163.515-91.8" transform="translate(4448.716 -1231.462)" fill="none" stroke="#00ab28" stroke-width="16" opacity="0.36"/><g transform="translate(263 386)"><text transform="translate(627 502)" fill="#c4c4c4" font-size="253" font-family="MonotypeCorsiva, Monotype Corsiva"><tspan x="0" y="0">ku</tspan></text><text transform="translate(0 502)" fill="#00ab28" font-size="441" font-family="MVBoli, MV Boli" letter-spacing="-0.078em"><tspan x="0" y="0">WA</tspan></text></g></g><g transform="translate(-263 -424.5)"><path d="M-3935.7,2106.068s183.015,84.628,440.5,125.021c132.017,20.71,214.557,4.45,163.515-91.8" transform="translate(4448.716 -1231.462)" fill="none" stroke="#00ab28" stroke-width="16" opacity="0.36"/><g transform="translate(263 386)"><text transform="translate(627 502)" fill="#c4c4c4" font-size="253" font-family="MonotypeCorsiva, Monotype Corsiva"><tspan x="0" y="0">ku</tspan></text><text transform="translate(0 502)" fill="#00ab28" font-size="441" font-family="MVBoli, MV Boli" letter-spacing="-0.078em"><tspan x="0" y="0">WA</tspan></text></g></g><g transform="translate(-263 -424.5)"><path d="M-3935.7,2106.068s183.015,84.628,440.5,125.021c132.017,20.71,214.557,4.45,163.515-91.8" transform="translate(4448.716 -1231.462)" fill="none" stroke="#fff" stroke-width="16" opacity="0.36"/><g transform="translate(263 386)"><text transform="translate(627 502)" fill="#c4c4c4" font-size="253" font-family="MonotypeCorsiva, Monotype Corsiva"><tspan x="0" y="0">ku</tspan></text><text transform="translate(0 502)" fill="#00ab28" font-size="441" font-family="MVBoli, MV Boli" letter-spacing="-0.078em"><tspan x="0" y="0">WA</tspan></text></g></g></g></svg>